<mxfile host="app.diagrams.net" modified="2023-03-31T08:59:06.104Z" agent="Mozilla/5.0 (Windows NT 10.0; Win64; x64) AppleWebKit/537.36 (KHTML, like Gecko) Chrome/111.0.0.0 Safari/537.36" etag="MNdo_49IC7K-M48-sRvp" version="21.1.2" type="device">
  <diagram name="1 oldal" id="woOvKOBD_l3Skzxdh3jX">
    <mxGraphModel dx="1793" dy="955" grid="1" gridSize="10" guides="1" tooltips="1" connect="1" arrows="1" fold="1" page="1" pageScale="1" pageWidth="827" pageHeight="1169" math="0" shadow="0">
      <root>
        <mxCell id="0" />
        <mxCell id="1" parent="0" />
        <mxCell id="rnYYFWRec-ZY_0mtqC7A-6" style="rounded=0;orthogonalLoop=1;jettySize=auto;html=1;entryX=0;entryY=0.5;entryDx=0;entryDy=0;" edge="1" parent="1" source="rnYYFWRec-ZY_0mtqC7A-1" target="rnYYFWRec-ZY_0mtqC7A-4">
          <mxGeometry relative="1" as="geometry" />
        </mxCell>
        <mxCell id="rnYYFWRec-ZY_0mtqC7A-16" style="rounded=0;orthogonalLoop=1;jettySize=auto;html=1;" edge="1" parent="1" source="rnYYFWRec-ZY_0mtqC7A-1" target="rnYYFWRec-ZY_0mtqC7A-15">
          <mxGeometry relative="1" as="geometry" />
        </mxCell>
        <mxCell id="rnYYFWRec-ZY_0mtqC7A-1" value="Player" style="shape=umlActor;verticalLabelPosition=bottom;verticalAlign=top;html=1;outlineConnect=0;" vertex="1" parent="1">
          <mxGeometry x="70" y="210" width="30" height="60" as="geometry" />
        </mxCell>
        <mxCell id="rnYYFWRec-ZY_0mtqC7A-7" style="rounded=0;orthogonalLoop=1;jettySize=auto;html=1;" edge="1" parent="1" source="rnYYFWRec-ZY_0mtqC7A-3">
          <mxGeometry relative="1" as="geometry">
            <mxPoint x="470" y="205" as="targetPoint" />
          </mxGeometry>
        </mxCell>
        <mxCell id="rnYYFWRec-ZY_0mtqC7A-3" value="Administrator" style="shape=umlActor;verticalLabelPosition=bottom;verticalAlign=top;html=1;outlineConnect=0;" vertex="1" parent="1">
          <mxGeometry x="720" y="230" width="30" height="60" as="geometry" />
        </mxCell>
        <mxCell id="rnYYFWRec-ZY_0mtqC7A-12" style="rounded=0;orthogonalLoop=1;jettySize=auto;html=1;" edge="1" parent="1" source="rnYYFWRec-ZY_0mtqC7A-4" target="rnYYFWRec-ZY_0mtqC7A-9">
          <mxGeometry relative="1" as="geometry" />
        </mxCell>
        <mxCell id="rnYYFWRec-ZY_0mtqC7A-13" style="rounded=0;orthogonalLoop=1;jettySize=auto;html=1;" edge="1" parent="1" source="rnYYFWRec-ZY_0mtqC7A-4" target="rnYYFWRec-ZY_0mtqC7A-10">
          <mxGeometry relative="1" as="geometry" />
        </mxCell>
        <mxCell id="rnYYFWRec-ZY_0mtqC7A-14" style="rounded=0;orthogonalLoop=1;jettySize=auto;html=1;entryX=0;entryY=1;entryDx=0;entryDy=0;" edge="1" parent="1" source="rnYYFWRec-ZY_0mtqC7A-4" target="rnYYFWRec-ZY_0mtqC7A-11">
          <mxGeometry relative="1" as="geometry" />
        </mxCell>
        <mxCell id="rnYYFWRec-ZY_0mtqC7A-4" value="Adatbázisműveletek" style="ellipse;whiteSpace=wrap;html=1;" vertex="1" parent="1">
          <mxGeometry x="340" y="170" width="130" height="70" as="geometry" />
        </mxCell>
        <mxCell id="rnYYFWRec-ZY_0mtqC7A-9" value="Regisztráció" style="ellipse;whiteSpace=wrap;html=1;" vertex="1" parent="1">
          <mxGeometry x="230" y="90" width="100" height="50" as="geometry" />
        </mxCell>
        <mxCell id="rnYYFWRec-ZY_0mtqC7A-24" style="rounded=0;orthogonalLoop=1;jettySize=auto;html=1;entryX=0;entryY=0.5;entryDx=0;entryDy=0;" edge="1" parent="1" source="rnYYFWRec-ZY_0mtqC7A-10" target="rnYYFWRec-ZY_0mtqC7A-23">
          <mxGeometry relative="1" as="geometry" />
        </mxCell>
        <mxCell id="rnYYFWRec-ZY_0mtqC7A-10" value="Bejelentkezés" style="ellipse;whiteSpace=wrap;html=1;" vertex="1" parent="1">
          <mxGeometry x="355" y="70" width="100" height="50" as="geometry" />
        </mxCell>
        <mxCell id="rnYYFWRec-ZY_0mtqC7A-11" value="Scoreboard" style="ellipse;whiteSpace=wrap;html=1;" vertex="1" parent="1">
          <mxGeometry x="490" y="90" width="100" height="50" as="geometry" />
        </mxCell>
        <mxCell id="rnYYFWRec-ZY_0mtqC7A-20" style="rounded=0;orthogonalLoop=1;jettySize=auto;html=1;" edge="1" parent="1" source="rnYYFWRec-ZY_0mtqC7A-15" target="rnYYFWRec-ZY_0mtqC7A-17">
          <mxGeometry relative="1" as="geometry" />
        </mxCell>
        <mxCell id="rnYYFWRec-ZY_0mtqC7A-21" style="rounded=0;orthogonalLoop=1;jettySize=auto;html=1;" edge="1" parent="1" source="rnYYFWRec-ZY_0mtqC7A-15" target="rnYYFWRec-ZY_0mtqC7A-18">
          <mxGeometry relative="1" as="geometry" />
        </mxCell>
        <mxCell id="rnYYFWRec-ZY_0mtqC7A-15" value="Játék indítása" style="ellipse;whiteSpace=wrap;html=1;" vertex="1" parent="1">
          <mxGeometry x="210" y="340" width="120" height="80" as="geometry" />
        </mxCell>
        <mxCell id="rnYYFWRec-ZY_0mtqC7A-26" style="rounded=0;orthogonalLoop=1;jettySize=auto;html=1;" edge="1" parent="1" source="rnYYFWRec-ZY_0mtqC7A-17" target="rnYYFWRec-ZY_0mtqC7A-25">
          <mxGeometry relative="1" as="geometry" />
        </mxCell>
        <mxCell id="rnYYFWRec-ZY_0mtqC7A-17" value="Játékos mozgatása" style="ellipse;whiteSpace=wrap;html=1;" vertex="1" parent="1">
          <mxGeometry x="190" y="470" width="120" height="80" as="geometry" />
        </mxCell>
        <mxCell id="rnYYFWRec-ZY_0mtqC7A-18" value="Ellenségek támadása" style="ellipse;whiteSpace=wrap;html=1;" vertex="1" parent="1">
          <mxGeometry x="390" y="340" width="130" height="80" as="geometry" />
        </mxCell>
        <mxCell id="rnYYFWRec-ZY_0mtqC7A-19" value="Pizza készítése" style="ellipse;whiteSpace=wrap;html=1;" vertex="1" parent="1">
          <mxGeometry x="510" y="560" width="120" height="80" as="geometry" />
        </mxCell>
        <mxCell id="rnYYFWRec-ZY_0mtqC7A-23" value="Kijelentkezés" style="ellipse;whiteSpace=wrap;html=1;" vertex="1" parent="1">
          <mxGeometry x="444" y="10" width="90" height="50" as="geometry" />
        </mxCell>
        <mxCell id="rnYYFWRec-ZY_0mtqC7A-27" style="edgeStyle=orthogonalEdgeStyle;rounded=0;orthogonalLoop=1;jettySize=auto;html=1;" edge="1" parent="1" source="rnYYFWRec-ZY_0mtqC7A-25" target="rnYYFWRec-ZY_0mtqC7A-19">
          <mxGeometry relative="1" as="geometry" />
        </mxCell>
        <mxCell id="rnYYFWRec-ZY_0mtqC7A-25" value="Ládák összegyűjtése" style="ellipse;whiteSpace=wrap;html=1;" vertex="1" parent="1">
          <mxGeometry x="300" y="560" width="120" height="80" as="geometry" />
        </mxCell>
      </root>
    </mxGraphModel>
  </diagram>
</mxfile>
